<svg xmlns="http://www.w3.org/2000/svg" viewBox="0 0 512 512">
  <defs>
    <radialGradient id="spaceGrad" cx="50%" cy="50%">
      <stop offset="0%" style="stop-color:#0c1222;stop-opacity:1" />
      <stop offset="70%" style="stop-color:#050a15;stop-opacity:1" />
      <stop offset="100%" style="stop-color:#000000;stop-opacity:1" />
    </radialGradient>
    
    <linearGradient id="electric" x1="0%" y1="0%" x2="100%" y2="100%">
      <stop offset="0%" style="stop-color:#00ffff;stop-opacity:1" />
      <stop offset="50%" style="stop-color:#00b4d8;stop-opacity:1" />
      <stop offset="100%" style="stop-color:#0077b6;stop-opacity:1" />
    </linearGradient>
    
    <linearGradient id="metal" x1="0%" y1="0%" x2="100%" y2="100%">
      <stop offset="0%" style="stop-color:#e0e0e0;stop-opacity:1" />
      <stop offset="50%" style="stop-color:#ffffff;stop-opacity:1" />
      <stop offset="100%" style="stop-color:#c0c0c0;stop-opacity:1" />
    </linearGradient>
    
    <filter id="luxeShadow" x="-50%" y="-50%" width="200%" height="200%">
      <feGaussianBlur in="SourceAlpha" stdDeviation="12"/>
      <feOffset dx="0" dy="15" result="shadow1"/>
      <feGaussianBlur in="SourceAlpha" stdDeviation="6"/>
      <feOffset dx="0" dy="6" result="shadow2"/>
      <feMerge>
        <feMergeNode in="shadow1"/>
        <feMergeNode in="shadow2"/>
        <feMergeNode in="SourceGraphic"/>
      </feMerge>
    </filter>
  </defs>
  
  <rect width="512" height="512" rx="96" fill="url(#spaceGrad)"/>
  
  <g transform="translate(256, 256)">
    <g filter="url(#luxeShadow)">
      <path d="M -80 0 C -80 -40, -40 -40, -40 0 C -40 40, -80 40, -80 0 Z" 
            fill="none" 
            stroke="url(#electric)" 
            stroke-width="20"
            stroke-linecap="round"/>
      
      <path d="M 80 0 C 80 -40, 40 -40, 40 0 C 40 40, 80 40, 80 0 Z" 
            fill="none" 
            stroke="url(#electric)" 
            stroke-width="20"
            stroke-linecap="round"/>
      
      <path d="M -40 0 Q 0 -20, 40 0 Q 0 20, -40 0" 
            fill="url(#electric)" 
            opacity="0.8"/>
      
      <g transform="translate(0, 0)">
        <path d="M -100 0 L -60 0 M 60 0 L 100 0" 
              stroke="url(#metal)" 
              stroke-width="16" 
              stroke-linecap="round"
              opacity="0.9"/>
        
        <path d="M 85 -15 L 100 0 L 85 15" 
              fill="none"
              stroke="url(#metal)" 
              stroke-width="12" 
              stroke-linecap="round"
              stroke-linejoin="round"
              opacity="0.9"/>
      </g>
    </g>
    
    <g>
      <circle cx="-80" cy="0" r="6" fill="#00ffff" opacity="0.8"/>
      <circle cx="80" cy="0" r="6" fill="#00ffff" opacity="0.8"/>
      <circle cx="0" cy="0" r="4" fill="#ffffff" opacity="0.9"/>
    </g>
  </g>
  
  <ellipse cx="200" cy="150" rx="120" ry="80" fill="white" opacity="0.03" transform="rotate(-35 200 150)"/>
  <rect width="512" height="512" rx="96" fill="none" stroke="url(#electric)" stroke-width="1" opacity="0.3"/>
</svg>