<svg width="48" height="48" viewBox="0 0 48 48" fill="none" xmlns="http://www.w3.org/2000/svg">
  <rect width="48" height="48" rx="10" fill="url(#codeium-gradient-bg)"/>
  
  <!-- Stylized C shape with code brackets -->
  <path d="M28 14C28 14 22 14 18 18C14 22 14 26 18 30C22 34 28 34 28 34" 
        stroke="white" stroke-width="3" stroke-linecap="round" fill="none" opacity="0.9"/>
  
  <!-- Code brackets representing completion -->
  <path d="M32 18L36 24L32 30" stroke="url(#codeium-accent)" stroke-width="2.5" stroke-linecap="round" stroke-linejoin="round"/>
  <path d="M16 18L12 24L16 30" stroke="url(#codeium-accent)" stroke-width="2.5" stroke-linecap="round" stroke-linejoin="round"/>
  
  <!-- AI sparkles -->
  <circle cx="24" cy="24" r="2" fill="white" opacity="0.9"/>
  <circle cx="30" cy="20" r="1.5" fill="white" opacity="0.7"/>
  <circle cx="18" cy="28" r="1.5" fill="white" opacity="0.7"/>
  <circle cx="30" cy="28" r="1" fill="white" opacity="0.5"/>
  <circle cx="18" cy="20" r="1" fill="white" opacity="0.5"/>
  
  <defs>
    <linearGradient id="codeium-gradient-bg" x1="0" y1="0" x2="48" y2="48" gradientUnits="userSpaceOnUse">
      <stop stop-color="#00E5FF"/>
      <stop offset="0.5" stop-color="#00ACC1"/>
      <stop offset="1" stop-color="#00838F"/>
    </linearGradient>
    <linearGradient id="codeium-accent" x1="12" y1="18" x2="36" y2="30" gradientUnits="userSpaceOnUse">
      <stop stop-color="#FFFFFF"/>
      <stop offset="1" stop-color="#B2EBF2"/>
    </linearGradient>
  </defs>
</svg>