<svg width="48" height="48" viewBox="0 0 48 48" fill="none" xmlns="http://www.w3.org/2000/svg">
  <rect width="48" height="48" rx="10" fill="url(#create-bg)"/>
  <path d="M16 24C16 19.5817 19.5817 16 24 16V16C28.4183 16 32 19.5817 32 24V24C32 28.4183 28.4183 32 24 32V32C19.5817 32 16 28.4183 16 24V24Z" fill="white" opacity="0.9"/>
  <path d="M20 24L22.5 26.5L28 21" stroke="url(#create-gradient)" stroke-width="2.5" stroke-linecap="round" stroke-linejoin="round"/>
  <circle cx="24" cy="12" r="2" fill="white" opacity="0.6"/>
  <circle cx="36" cy="24" r="2" fill="white" opacity="0.6"/>
  <circle cx="24" cy="36" r="2" fill="white" opacity="0.6"/>
  <circle cx="12" cy="24" r="2" fill="white" opacity="0.6"/>
  <defs>
    <linearGradient id="create-bg" x1="0" y1="0" x2="48" y2="48" gradientUnits="userSpaceOnUse">
      <stop stop-color="#6366F1"/>
      <stop offset="1" stop-color="#8B5CF6"/>
    </linearGradient>
    <linearGradient id="create-gradient" x1="20" y1="24" x2="28" y2="24" gradientUnits="userSpaceOnUse">
      <stop stop-color="#6366F1"/>
      <stop offset="1" stop-color="#8B5CF6"/>
    </linearGradient>
  </defs>
</svg>