<svg width="48" height="48" viewBox="0 0 48 48" fill="none" xmlns="http://www.w3.org/2000/svg">
  <rect width="48" height="48" rx="10" fill="url(#flutterflow-gradient-bg)"/>
  
  <!-- Flutter-inspired diamond shapes -->
  <path d="M24 8L14 18L24 28L34 18L24 8Z" fill="url(#flutterflow-gradient1)" opacity="0.9"/>
  <path d="M24 20L14 30L24 40L34 30L24 20Z" fill="url(#flutterflow-gradient2)" opacity="0.8"/>
  
  <!-- Flow arrows representing visual flow -->
  <path d="M20 24L24 20L28 24" stroke="white" stroke-width="2" stroke-linecap="round" stroke-linejoin="round" opacity="0.9"/>
  <path d="M20 32L24 28L28 32" stroke="white" stroke-width="1.5" stroke-linecap="round" stroke-linejoin="round" opacity="0.7"/>
  
  <!-- AI sparkle accents -->
  <circle cx="16" cy="16" r="1.5" fill="white" opacity="0.8"/>
  <circle cx="32" cy="16" r="1.5" fill="white" opacity="0.8"/>
  <circle cx="16" cy="32" r="1" fill="white" opacity="0.6"/>
  <circle cx="32" cy="32" r="1" fill="white" opacity="0.6"/>
  
  <defs>
    <linearGradient id="flutterflow-gradient-bg" x1="0" y1="0" x2="48" y2="48" gradientUnits="userSpaceOnUse">
      <stop stop-color="#5B4EF9"/>
      <stop offset="1" stop-color="#4B3EE9"/>
    </linearGradient>
    <linearGradient id="flutterflow-gradient1" x1="14" y1="8" x2="34" y2="28" gradientUnits="userSpaceOnUse">
      <stop stop-color="#7C6FFB"/>
      <stop offset="1" stop-color="#6B5EFA"/>
    </linearGradient>
    <linearGradient id="flutterflow-gradient2" x1="14" y1="20" x2="34" y2="40" gradientUnits="userSpaceOnUse">
      <stop stop-color="#8D80FC"/>
      <stop offset="1" stop-color="#7C6FFB"/>
    </linearGradient>
  </defs>
</svg>