<svg width="48" height="48" viewBox="0 0 48 48" fill="none" xmlns="http://www.w3.org/2000/svg">
  <rect width="48" height="48" rx="10" fill="url(#marblism-gradient-bg)"/>
  
  <!-- Marble sphere representing the brand -->
  <circle cx="24" cy="24" r="14" fill="url(#marblism-marble)" opacity="0.95"/>
  
  <!-- Inner marble veins -->
  <path d="M15 20C18 22 20 24 24 24C28 24 30 22 33 20" stroke="white" stroke-width="1" opacity="0.4" fill="none"/>
  <path d="M15 28C18 26 20 24 24 24C28 24 30 26 33 28" stroke="white" stroke-width="1" opacity="0.4" fill="none"/>
  
  <!-- Code brackets representing app builder -->
  <path d="M18 18L14 24L18 30" stroke="white" stroke-width="2" stroke-linecap="round" stroke-linejoin="round" opacity="0.8"/>
  <path d="M30 18L34 24L30 30" stroke="white" stroke-width="2" stroke-linecap="round" stroke-linejoin="round" opacity="0.8"/>
  
  <!-- Central AI dot -->
  <circle cx="24" cy="24" r="3" fill="white" opacity="0.9"/>
  
  <!-- AI sparkles representing AI employees -->
  <circle cx="16" cy="16" r="1.5" fill="white" opacity="0.7"/>
  <circle cx="32" cy="16" r="1.5" fill="white" opacity="0.7"/>
  <circle cx="16" cy="32" r="1.5" fill="white" opacity="0.7"/>
  <circle cx="32" cy="32" r="1.5" fill="white" opacity="0.7"/>
  
  <defs>
    <linearGradient id="marblism-gradient-bg" x1="0" y1="0" x2="48" y2="48" gradientUnits="userSpaceOnUse">
      <stop stop-color="#6366F1"/>
      <stop offset="0.5" stop-color="#8B5CF6"/>
      <stop offset="1" stop-color="#A855F7"/>
    </linearGradient>
    <radialGradient id="marblism-marble" cx="24" cy="24" r="14" gradientUnits="userSpaceOnUse">
      <stop stop-color="#E0E7FF" opacity="0.9"/>
      <stop offset="0.5" stop-color="#C7D2FE" opacity="0.8"/>
      <stop offset="1" stop-color="#A5B4FC" opacity="0.7"/>
    </radialGradient>
  </defs>
</svg>