<svg width="48" height="48" viewBox="0 0 48 48" fill="none" xmlns="http://www.w3.org/2000/svg">
  <rect width="48" height="48" rx="10" fill="url(#opendevin-gradient)"/>
  
  <!-- OpenDevin/OpenHands logo: Open hands with code -->
  <g transform="translate(24, 24)">
    <!-- Left hand -->
    <path d="M -12 2 C -12 -2 -10 -4 -8 -4 L -6 -4 C -5 -4 -4 -3 -4 -2 L -4 0 L -3 0 C -2 0 -1 1 -1 2 L -1 4 L -2 4 C -3 4 -4 3 -4 2 L -4 6 C -4 8 -6 10 -8 10 C -10 10 -12 8 -12 6 Z" 
          fill="white" opacity="0.9"/>
    
    <!-- Right hand (mirrored) -->
    <path d="M 12 2 C 12 -2 10 -4 8 -4 L 6 -4 C 5 -4 4 -3 4 -2 L 4 0 L 3 0 C 2 0 1 1 1 2 L 1 4 L 2 4 C 3 4 4 3 4 2 L 4 6 C 4 8 6 10 8 10 C 10 10 12 8 12 6 Z" 
          fill="white" opacity="0.9"/>
    
    <!-- Code brackets in center -->
    <g opacity="0.95">
      <path d="M -3 -6 L -1 -6 L -1 -5 L -2 -5 L -2 -1 L -1 -1 L -1 0 L -3 0 Z" fill="white"/>
      <path d="M 3 -6 L 1 -6 L 1 -5 L 2 -5 L 2 -1 L 1 -1 L 1 0 L 3 0 Z" fill="white"/>
    </g>
    
    <!-- Stars representing 63k+ GitHub stars -->
    <g opacity="0.8">
      <circle cx="-8" cy="-8" r="1" fill="white"/>
      <circle cx="0" cy="-9" r="1.2" fill="white"/>
      <circle cx="8" cy="-8" r="1" fill="white"/>
    </g>
    
    <!-- Open source indicator -->
    <circle cx="0" cy="8" r="2" fill="none" stroke="white" stroke-width="0.5" opacity="0.7"/>
    <circle cx="0" cy="8" r="1" fill="white" opacity="0.8"/>
  </g>
  
  <!-- Corner accents -->
  <circle cx="10" cy="10" r="1" fill="white" opacity="0.6"/>
  <circle cx="38" cy="38" r="1" fill="white" opacity="0.6"/>
  
  <defs>
    <linearGradient id="opendevin-gradient" x1="0" y1="0" x2="48" y2="48" gradientUnits="userSpaceOnUse">
      <stop stop-color="#10B981"/>
      <stop offset="0.5" stop-color="#059669"/>
      <stop offset="1" stop-color="#047857"/>
    </linearGradient>
  </defs>
</svg>