<svg width="48" height="48" viewBox="0 0 48 48" fill="none" xmlns="http://www.w3.org/2000/svg">
  <rect width="48" height="48" rx="10" fill="url(#perplexity-gradient-bg)"/>
  
  <!-- Perplexity P shape with search element -->
  <g transform="translate(12, 10)">
    <!-- Main P shape -->
    <path d="M4 4 L4 28 L8 28 L8 18 L16 18 C20 18 23 15 23 11 C23 7 20 4 16 4 L4 4 Z" 
          fill="white" opacity="0.95"/>
    <path d="M8 8 L16 8 C18 8 19 9 19 11 C19 13 18 14 16 14 L8 14 L8 8 Z" 
          fill="url(#perplexity-gradient-bg)"/>
    
    <!-- Search circle accent -->
    <circle cx="16" cy="11" r="6" stroke="white" stroke-width="1.5" fill="none" opacity="0.4"/>
    <line x1="20" y1="15" x2="23" y2="18" stroke="white" stroke-width="1.5" opacity="0.4" stroke-linecap="round"/>
  </g>
  
  <!-- AI sparkles -->
  <circle cx="36" cy="12" r="1.5" fill="white" opacity="0.8"/>
  <circle cx="12" cy="36" r="1.5" fill="white" opacity="0.8"/>
  <circle cx="38" cy="36" r="1" fill="white" opacity="0.6"/>
  <circle cx="10" cy="12" r="1" fill="white" opacity="0.6"/>
  
  <defs>
    <linearGradient id="perplexity-gradient-bg" x1="0" y1="0" x2="48" y2="48" gradientUnits="userSpaceOnUse">
      <stop stop-color="#20B2C7"/>
      <stop offset="0.5" stop-color="#1E9AAF"/>
      <stop offset="1" stop-color="#1C8297"/>
    </linearGradient>
  </defs>
</svg>