<svg width="48" height="48" viewBox="0 0 48 48" fill="none" xmlns="http://www.w3.org/2000/svg">
  <rect width="48" height="48" rx="10" fill="#0E1525"/>
  <path d="M24 12C24 12 12 12 12 24C12 24 24 24 24 24V12Z" fill="#F26207"/>
  <path d="M24 24C24 24 24 36 24 36C24 36 36 36 36 24C36 24 24 24 24 24Z" fill="#F26207" opacity="0.8"/>
  <path d="M24 24C24 24 36 24 36 12C36 12 24 12 24 24Z" fill="#F26207" opacity="0.6"/>
  <path d="M24 24C24 24 12 24 12 36C12 36 24 36 24 24Z" fill="#F26207" opacity="0.7"/>
  <circle cx="24" cy="24" r="3" fill="white"/>
</svg>