<svg viewBox="0 0 100 100" fill="none" xmlns="http://www.w3.org/2000/svg">
  <rect width="100" height="100" rx="20" fill="url(#gradient-semgrep)"/>
  
  <!-- Shield shape for security -->
  <path d="M50 20 C35 20, 25 30, 25 40 L25 55 C25 70, 35 80, 50 80 C65 80, 75 70, 75 55 L75 40 C75 30, 65 20, 50 20Z" 
        fill="white" opacity="0.15"/>
  
  <!-- Code brackets -->
  <text x="30" y="55" font-family="monospace" font-size="24" font-weight="bold" fill="white">&lt;</text>
  <text x="60" y="55" font-family="monospace" font-size="24" font-weight="bold" fill="white">/&gt;</text>
  
  <!-- Shield icon in center -->
  <path d="M50 35 L40 40 L40 52 C40 58, 44 62, 50 65 C56 62, 60 58, 60 52 L60 40 L50 35Z" 
        fill="white" opacity="0.9"/>
  
  <!-- Check mark inside shield -->
  <path d="M45 48 L48 51 L55 44" 
        stroke="#10B981" stroke-width="2.5" stroke-linecap="round" stroke-linejoin="round" fill="none"/>
  
  <defs>
    <linearGradient id="gradient-semgrep" x1="0%" y1="0%" x2="100%" y2="100%">
      <stop offset="0%" style="stop-color:#4F46E5;stop-opacity:1" />
      <stop offset="50%" style="stop-color:#7C3AED;stop-opacity:1" />
      <stop offset="100%" style="stop-color:#9333EA;stop-opacity:1" />
    </linearGradient>
  </defs>
</svg>