<svg width="48" height="48" viewBox="0 0 48 48" fill="none" xmlns="http://www.w3.org/2000/svg">
  <rect width="48" height="48" rx="10" fill="url(#superhuman-gradient-bg)"/>
  
  <!-- Superhuman lightning bolt S design -->
  <g transform="translate(24, 24)">
    <!-- Lightning bolt forming an S shape -->
    <path d="M -6 -12 L 2 -12 L -2 -2 L 6 -2 L -6 12 L -2 2 L -10 2 Z" 
          fill="white" opacity="0.95"/>
    
    <!-- Speed lines -->
    <line x1="-14" y1="-8" x2="-10" y2="-8" stroke="white" stroke-width="2" opacity="0.7" stroke-linecap="round"/>
    <line x1="-13" y1="-4" x2="-9" y2="-4" stroke="white" stroke-width="1.5" opacity="0.6" stroke-linecap="round"/>
    <line x1="-14" y1="0" x2="-10" y2="0" stroke="white" stroke-width="2" opacity="0.7" stroke-linecap="round"/>
    
    <line x1="10" y1="-8" x2="14" y2="-8" stroke="white" stroke-width="2" opacity="0.7" stroke-linecap="round"/>
    <line x1="9" y1="-4" x2="13" y2="-4" stroke="white" stroke-width="1.5" opacity="0.6" stroke-linecap="round"/>
    <line x1="10" y1="0" x2="14" y2="0" stroke="white" stroke-width="2" opacity="0.7" stroke-linecap="round"/>
  </g>
  
  <!-- Energy particles -->
  <circle cx="10" cy="10" r="1.5" fill="white" opacity="0.8"/>
  <circle cx="38" cy="38" r="1.5" fill="white" opacity="0.8"/>
  <circle cx="38" cy="10" r="1" fill="white" opacity="0.6"/>
  <circle cx="10" cy="38" r="1" fill="white" opacity="0.6"/>
  
  <defs>
    <linearGradient id="superhuman-gradient-bg" x1="0" y1="0" x2="48" y2="48" gradientUnits="userSpaceOnUse">
      <stop stop-color="#5E5CE6"/>
      <stop offset="0.5" stop-color="#4B49E0"/>
      <stop offset="1" stop-color="#3836DA"/>
    </linearGradient>
  </defs>
</svg>