<svg width="48" height="48" viewBox="0 0 48 48" fill="none" xmlns="http://www.w3.org/2000/svg">
  <rect width="48" height="48" rx="10" fill="url(#warp-gradient)"/>
  
  <!-- Warp terminal prompt with AI sparkle -->
  <g transform="translate(24, 24)">
    <!-- Terminal prompt arrow -->
    <path d="M -14 -8 L -6 0 L -14 8" 
          stroke="white" stroke-width="2.5" stroke-linecap="round" stroke-linejoin="round" 
          fill="none" opacity="0.95"/>
    
    <!-- AI command line -->
    <rect x="-2" y="-1" width="16" height="2" rx="1" fill="white" opacity="0.9"/>
    
    <!-- Cursor blink -->
    <rect x="15" y="-1" width="2" height="2" fill="white" opacity="1">
      <animate attributeName="opacity" values="1;0;1" dur="1s" repeatCount="indefinite"/>
    </rect>
    
    <!-- AI sparkles around terminal -->
    <g transform="translate(10, -10)">
      <circle cx="0" cy="0" r="2" fill="white" opacity="0.8"/>
      <path d="M -3 0 L 3 0 M 0 -3 L 0 3" stroke="white" stroke-width="1" opacity="0.6"/>
    </g>
    
    <g transform="translate(-10, 10)">
      <circle cx="0" cy="0" r="1.5" fill="white" opacity="0.7"/>
      <path d="M -2 0 L 2 0 M 0 -2 L 0 2" stroke="white" stroke-width="0.8" opacity="0.5"/>
    </g>
  </g>
  
  <!-- Speed lines for performance -->
  <line x1="4" y1="16" x2="10" y2="16" stroke="white" stroke-width="1.5" opacity="0.4" stroke-linecap="round"/>
  <line x1="4" y1="24" x2="8" y2="24" stroke="white" stroke-width="1.5" opacity="0.3" stroke-linecap="round"/>
  <line x1="4" y1="32" x2="10" y2="32" stroke="white" stroke-width="1.5" opacity="0.4" stroke-linecap="round"/>
  
  <!-- Corner accent dots -->
  <circle cx="10" cy="10" r="1" fill="white" opacity="0.5"/>
  <circle cx="38" cy="38" r="1" fill="white" opacity="0.5"/>
  
  <defs>
    <linearGradient id="warp-gradient" x1="0" y1="0" x2="48" y2="48" gradientUnits="userSpaceOnUse">
      <stop stop-color="#00D4FF"/>
      <stop offset="0.5" stop-color="#0099FF"/>
      <stop offset="1" stop-color="#0066CC"/>
    </linearGradient>
  </defs>
</svg>